<?xml version="1.0" encoding="utf-8"?>
<!-- Svg Vector Icons : http://www.onlinewebfonts.com/icon -->
<!DOCTYPE svg PUBLIC "-//W3C//DTD SVG 1.1//EN" "http://www.w3.org/Graphics/SVG/1.1/DTD/svg11.dtd">
<svg version="1.1" xmlns="http://www.w3.org/2000/svg" xmlns:xlink="http://www.w3.org/1999/xlink" x="0px" y="0px" viewBox="0 0 256 256" enable-background="new 0 0 256 256" xml:space="preserve">
<metadata> Svg Vector Icons : http://www.onlinewebfonts.com/icon </metadata>
<g><g><g><g><path fill="#000000" d="M246,104.7c-0.2-14.8-0.7-36.5-13.8-46.4c0-0.4,0-0.8-0.2-1.3c-8-23.4-41.6-31.9-63.5-28.3c-11.3,1.9-23.6,5.2-33.4,11.3c-1,0.6-2.2,1.6-3.3,2.8c-7.1-17.6-40.1-19.7-55-19.6c-11.4,0.1-23.3,1.9-33.6,7C40.6,31.6,33.7,37,33,41.5c-0.8,0.5-1.4,1.3-1.6,2.5c-3.2,2.6-6.2,5.4-9.2,8.1c-2.2,2-4.4,3.9-6.4,6c-0.7,0.7-1.3,1.3-1.7,2.3c-0.3,0.8-0.1,1,0.2,0.8c-0.2,0.3-0.4,0.6-0.1,0.6c0,0,0,0,0.1,0c-6.7,17.9-3.8,96.5-3.5,105.1c0.6,15.6-0.9,34.2,18.3,37.9c12.8,2.4,26.2-1.2,39-1.3c4.5,0,9.1,0.1,13.5,0.3c0.5,0.6,1.3,0.9,2.2,0.9c2.9-0.1,5.9-0.2,8.8-0.4c10.2,0.5,20.4,0.8,30.7-0.4c0.8,0.4,1.7,0.5,2.5,0.2c-0.5,8.3-0.7,16.5-0.2,24.8c0,0.2,0.1,0.4,0.2,0.7c0,0,0,0,0,0s0,0,0,0.1c-1,1.7,1,4,2.8,2.8c7.2-4.8,13.4-11.8,19.3-18.5c3.4,5.9,8,12.9,13.4,15.1c1.4,0.6,2.8-0.3,3.4-1.6c1.5,0.6,3.6-0.2,3.5-2.2c-0.4-6.1-0.6-12.1-0.7-18.1c2.2,0,4.3-0.2,6.4-0.5c3.1,0.3,6.1,0.3,9.2,0.2c0.1,0,0.1,0,0.2,0c12.7,0.8,27.4-2.7,37.2-3.7c8.3-0.8,15.8,1.9,21.4-5.5c6.4-8.4,1.9-21.9,1.6-31.4C242.7,145.7,246.3,125.2,246,104.7z M128,170c-9.5-10-31.3-10.3-42.7-9.6c-16.4,0.9-37.3,5.1-50.7,15.8c-0.1-0.2-0.3-0.3-0.4-0.5c-3.1-20.1-1.7-40.7-0.5-61c1.3-22.6,5.3-46,4.8-68.7c0.7-1.1,0.4-2.4-0.4-3.4c0.4-0.5,0.7-1.1,1.2-1.5c2.6-2.8,6.2-4.5,9.6-5.8c8.9-3.5,18.6-4.3,28-4.5c17.4-0.3,39.6,2.3,49.5,18.2c-0.3,8.9-0.4,17.7-1.1,26.6c-1.3,15.7,0.9,31.7,2,47.3C128.3,138.5,128.5,154.2,128,170z M162.9,118.9c-0.6,33.3-7.9,68.9-0.7,101.9c-0.6-0.7-1.3-1.4-1.9-2.2c-3.3-3.9-6.2-8.1-8.8-12.5c-1.1-1.8-4-2.4-5.5-0.7c-3.3,3.8-6.6,7.8-9.8,11.6c-1.3,1.6-2.7,3.1-4,4.7c4-32.7,4.8-66.3,2.6-99c-1.1-16.6-3.2-33.3-1.8-50c0.5-6.1,2.9-16.5,1.3-24c2.8-4.1,10.2-5.8,14.3-7.2c4.5-1.5,9.1-2.8,13.8-3.9c-0.4,3.7,0.1,7.6,0.1,11.2c0.1,7.2,0.2,14.4,0.3,21.6C162.8,86.7,163.2,102.8,162.9,118.9z M170.2,118.9c0.4-15-0.1-30.1-0.3-45.1c-0.1-7.3-0.3-14.7-0.4-22.1c-0.1-4.9,0.6-10.6-0.4-15.5c1-0.2,2-0.4,2.9-0.6c17.9-2.9,41.4,5,51.3,20.7c-0.6,0.3-1.2,0.9-1.3,1.7c-0.8,5.4,1.1,11.3,1.1,16.8c0,8.9-0.9,17.8-1.7,26.7c-2.1,23.2-0.8,46.6-2,69.9c-14.3-7.4-38.4-14-51.4-4.7C168.8,151,169.7,135,170.2,118.9z"/><path fill="#000000" d="M111.4,64.1c-6.2-9.4-24.8-11.7-34.8-13C65.1,49.6,47.7,49.6,42.1,62c-0.4,1,0.8,2.2,1.6,1.3c15.1-17.5,48.1-4.6,64.4,4C110.1,68.2,112.7,66.1,111.4,64.1z"/><path fill="#000000" d="M108.5,76.6c-3.1-8.7-18.2-8.6-25.7-9.1c-12-0.7-28.7-0.5-39.3,6c-0.9,0.6-0.3,2.1,0.7,1.8c9.9-3.6,21-3.7,31.4-3.6c8.6,0.1,23.3-0.4,29.7,6.7C106.5,79.8,109.1,78.4,108.5,76.6z"/><path fill="#000000" d="M107.6,91.7c-17.5-12.6-48.2-7-67.6-3c-1.3,0.3-0.7,2.2,0.6,2c22.7-3.2,43.8-2.6,65.6,4.5C108.4,96,109.3,93,107.6,91.7z"/><path fill="#000000" d="M109.5,105.2c-9-5.4-22.5-4.3-32.6-3.9c-6.5,0.2-13,0.9-19.5,1.5c-4.6,0.4-10.3-0.1-14.6,1.6c-0.5,0.2-0.8,1-0.2,1.3c6.7,3.5,18.4,0.7,25.6,0.4c13.8-0.6,26.1,0.4,39.6,2.9C110.2,109.5,111.7,106.5,109.5,105.2z"/><path fill="#000000" d="M113.5,120.2c-9-7-24.6-6.4-35.4-6c-10.9,0.4-24.6,0.9-34.5,5.9c-0.7,0.3-0.3,1.4,0.4,1.3c10.4-0.3,20.8-2.5,31.3-2.9c12.9-0.4,24,2.1,36.4,5C113.3,123.9,115.2,121.5,113.5,120.2z"/><path fill="#000000" d="M112,131.7c-0.2,0-0.4,0-0.6-0.1l0,0c-6.3-0.6-13.4-2.4-19.6-4c-13-3.4-33,0.4-45.5,4.6c-1.6,0.5-0.9,2.9,0.7,2.5c14.3-3.9,32-5.6,46.6-1.8c4.6,1.2,13.8,5,18.4,3.1C113.8,135.2,114.4,132.2,112,131.7z"/></g></g><g></g><g></g><g></g><g></g><g></g><g></g><g></g><g></g><g></g><g></g><g></g><g></g><g></g><g></g><g></g></g></g>
</svg>