<?xml version="1.0" encoding="utf-8"?>
<!-- Svg Vector Icons : http://www.onlinewebfonts.com/icon -->
<!DOCTYPE svg PUBLIC "-//W3C//DTD SVG 1.1//EN" "http://www.w3.org/Graphics/SVG/1.1/DTD/svg11.dtd">
<svg version="1.1" xmlns="http://www.w3.org/2000/svg" xmlns:xlink="http://www.w3.org/1999/xlink" x="0px" y="0px" viewBox="0 0 256 256" enable-background="new 0 0 256 256" xml:space="preserve">
<metadata> Svg Vector Icons : http://www.onlinewebfonts.com/icon </metadata>
<g><g><g><g><path fill="#000000" d="M139.5,23.4c-0.7-0.1-1.3-0.2-1.8-0.2c-1.2-0.5-2.5-0.7-4-0.5C90,28.8,49.6,45.9,13.2,70.5C7.9,74,9.8,81,14,83.2c0.5,1.1,1.3,2.1,2.6,2.9C29.3,94,42.6,100,56.4,104.6c-0.2,0.9-0.3,1.8-0.3,2.9c0,0.1,0,0.2,0,0.3c-0.4,0.7-0.6,1.6-0.7,2.5c-1.3,13.3-2,26.7-1.4,40c0.2,4.4,3.6,6.6,7.1,6.8c8.1,4,16.5,7.2,25,9.7c0.7,10.1,1.5,20.2,2.1,30.3c-10,5.3-15.2,14.6-13.1,25.7c0,2.4,1.3,4.7,3.4,6c5.2,3.3,11.4,5.2,17.6,4.5c0,0,0.1,0,0.2,0c0.8,0.1,1.6,0,2.4-0.2c6.6-2,12.5-6,15.4-12.4c0.5-1.2,0.8-2.4,0.8-3.5c0.5-1,0.9-2.1,0.8-3.5c-0.1-5.4-1.8-10.7-5.9-14.4c-2.2-2-4.9-3.4-7.8-4.2c-0.6-8.3-1.2-16.6-1.8-24.9c34.6,6.2,70.8-0.1,101.9-18.5c1.5-0.9,2.5-2.1,2.9-3.3c1.2-1.1,2-2.7,2-4.8c0-11.9,0-23.9,0.7-35.8c0-0.7,0-1.4-0.2-2c0.1-0.5,0.2-1,0.2-1.5v-3.5c0-0.2,0-0.4,0-0.5c11.2-4.5,22.3-9.6,33.1-15.2c2-1,3.1-2.6,3.4-4.2c2.1-2.5,2.6-6.1-0.6-8.9C214.4,45.3,177.4,31.8,139.5,23.4z M67.9,144.8c-0.2-11.5,0.4-22.9,1.5-34.4c0.3-0.6,0.5-1.2,0.6-1.8c4,1.1,8,2,12,2.8c0.9,13.4,1.9,26.9,2.9,40.3C79.2,149.9,73.5,147.6,67.9,144.8z M100.7,209.8c0.1,0.2,0.3,0.5,0.4,0.7c0,0,0.4,1.1,0.4,1.2c0,0.2,0.1,0.4,0.1,0.5c0,0.4,0,0.9,0,1.3c0,0.1,0,0.2,0,0.3c-0.4,0.8-0.8,1.5-1.2,2.2c-0.1,0.1-0.1,0.1-0.2,0.2c-0.4,0.4-0.8,0.7-1.2,1.1c-0.1,0-0.1,0.1-0.2,0.1c-0.5,0.4-1.1,0.6-1.6,0.9c-0.1,0-0.7,0.3-0.9,0.4c-0.3,0.1-0.5,0.2-0.8,0.3c-2.6,0.2-4.8-0.1-7.1-1c-0.2-4.3,2.6-6.9,6.9-9.1c0.6-0.3,1-0.6,1.4-1c0.4,0.1,1,0.2,1.1,0.2c0.1,0,0.9,0.3,1.2,0.4c0.4,0.3,1,0.6,1.1,0.7C100.4,209.5,100.6,209.7,100.7,209.8z M193.8,107.4c-0.6,11-0.7,22-0.7,33c-28.7,16.3-62.1,21.7-93.8,15.2c-1-13.8-2-27.7-3-41.5c13,2.1,26.1,3.5,39.2,4.5c0.6,0.1,1.3,0.1,2.1,0c19.5-2.5,38.2-7.2,56.3-13.6c0,0.2,0.1,0.5,0.2,0.7C194,106.3,193.8,106.9,193.8,107.4z M137.6,104.6c-0.2,0-0.4,0.1-0.6,0.1c-0.3,0-0.5-0.1-0.8-0.1c-12.1-0.9-24.2-2.1-36.1-4c10.5-9.6,21.1-19.1,32-28.2c6.9-5.9-3.1-15.8-9.9-9.9c-12.9,10.9-25.5,22-37.7,33.5c-0.6,0.3-1.2,0.8-1.6,1.3C64,93.1,45.8,86.8,28.9,77c32.5-20.5,67.8-34.6,105.9-40.4c0.3,0.1,0.6,0.2,0.9,0.3c32.7,7.2,65,18.2,91.4,39C198.8,89.9,169.1,100.5,137.6,104.6z"/></g></g><g></g><g></g><g></g><g></g><g></g><g></g><g></g><g></g><g></g><g></g><g></g><g></g><g></g><g></g><g></g></g></g>
</svg>