<?xml version="1.0" encoding="utf-8"?>
<!-- Svg Vector Icons : http://www.onlinewebfonts.com/icon -->
<!DOCTYPE svg PUBLIC "-//W3C//DTD SVG 1.1//EN" "http://www.w3.org/Graphics/SVG/1.1/DTD/svg11.dtd">
<svg version="1.1" xmlns="http://www.w3.org/2000/svg" xmlns:xlink="http://www.w3.org/1999/xlink" x="0px" y="0px" viewBox="0 0 256 256" enable-background="new 0 0 256 256" xml:space="preserve">
<metadata> Svg Vector Icons : http://www.onlinewebfonts.com/icon </metadata>
<g><g><g><path fill="#000000" d="M107.6,8C34.3,20.9-10.5,113.6,19.3,179.6C52,252,132.8,267,198.8,230.6c8.1-4.5,0.8-16.9-7.2-12.4c-50.2,27.9-110.4,25.3-147-22.8C8.6,148.2,23.3,87,63.2,48.1c48.7-47.5,125-29.8,157,27.1c15.6,27.8,15.8,68.3-6.9,92.2c-13.8,14.5-31.4,0.4-38.4-11.1c-4.2-6.9-5.8-16.9-6.9-25.1c2.2-16.4,0.5-34.1-1.8-48c-1.4-8.2-14.1-6-14.1,1.9c0,5.3-0.1,10.8-0.1,16.4c-17.5-44.8-99.2-16.1-88.1,33.1c7.2,32.3,38.3,50.2,69.9,41.7c12.4-3.3,20.8-10.6,26.2-19.9c4.5,10.5,11.5,19.7,22.5,26.5c32.6,20.3,56.4-21.5,61.6-47.3C259.8,57.8,179.6-4.7,107.6,8z M142.9,154.2c-22.4,26.5-62.6,2-65.6-26.4c-3.7-35.4,55.4-49.2,69-16.8c1.1,2.7,3.8,3.3,5.7,2.3c0.2,6.4,0.6,12.8,1.4,19C151.8,140.1,148.5,147.5,142.9,154.2z"/></g><g></g><g></g><g></g><g></g><g></g><g></g><g></g><g></g><g></g><g></g><g></g><g></g><g></g><g></g><g></g></g></g>
</svg>