<?xml version="1.0" encoding="utf-8"?>
<!-- Svg Vector Icons : http://www.onlinewebfonts.com/icon -->
<!DOCTYPE svg PUBLIC "-//W3C//DTD SVG 1.1//EN" "http://www.w3.org/Graphics/SVG/1.1/DTD/svg11.dtd">
<svg version="1.1" xmlns="http://www.w3.org/2000/svg" xmlns:xlink="http://www.w3.org/1999/xlink" x="0px" y="0px" viewBox="0 0 256 256" enable-background="new 0 0 256 256" xml:space="preserve">
<metadata> Svg Vector Icons : http://www.onlinewebfonts.com/icon </metadata>
<g><g><g><g><path fill="#000000" d="M237.6,66.6c-0.2-0.6-0.7-1.1-1.4-1.5c-10-5.7-28.6-0.2-39.4,0.7c-24.4,2.1-49.6-1.3-74.1-1.2c-26.5,0.2-53,3.8-79.5,3.7c-5.3,0-24.5-3.1-28.1,2.8c-0.4,0.1-0.7,0.2-1,0.5c-1.9,2.1-0.7,5.2-0.5,7.8C14,85.2,13.4,91.2,13,97c-0.9,11.7-2.7,23.4-3,35.2c0,2,1.6,3.2,3.3,3.3c24.8,2.7,49.8,1.5,74.7,1.2c2.3,0,3.5-1.8,3.5-3.6c3.2-6.9,6.3-13.7,11.7-19.2c6.8-6.8,17.9-8,26.9-8.6c8.9-0.6,18.2,1.3,26.4,4.9c4.4,2,8.3,4.9,11,8.9c2.4,3.5,1.3,7.9,2.1,11.9c0.1,0.4,0.3,0.8,0.5,1l-0.1,0.5c-0.5,2.3,1.7,3.8,3.4,3.2c0.4,0.3,0.9,0.5,1.6,0.5c3.1,0,6.1-0.2,9.2-0.5c2.4-0.2,4.8-0.2,7.1-0.7c3.2-0.4,6.3-0.8,8.5-1c12.5-0.9,25.1-1.2,37.5,0.9c2.4,0.4,4.7-1,4.8-3.6C242.6,113,253,81.2,237.6,66.6z"/><path fill="#000000" d="M167.2,36.1c-8.1-7.1-19.7-9.4-30.1-10.4c-18.8-1.7-51.3,5.9-48.5,30.8c0.2,2.2,3.2,3.2,4.3,1.4c0.3,0.4,0.7,0.6,1.2,0.7c1.8,0.3,3.7,0.7,5.5,1.1c1.7,0.3,3.6-0.5,4-2.3c5.8-23.8,49.9-25.1,54.5,0.2c0.3,1.8,2.2,2.8,3.8,2.9c3.2,0.3,6.4,0,8.5-1.8c0.7,0,1.5-0.2,2.2-0.9C179,51.7,172.3,40.6,167.2,36.1z"/><path fill="#000000" d="M233.6,153.3c2.5-0.5,3.1-3.6,1.6-5.5c-4.5-5.5-17.7-2.8-23.7-2.2c-12.2,1.2-24.2,3.6-36.4,4.7c-2,0.2-3.6,1.5-3.6,3.6c-0.2,10.8-11.5,15.7-20.9,16.8c0-3.1-0.1-6.3-0.3-9.4c0.7,0.2,1.4,0.3,2.2,0.1c11.8-3,13.4-14.4,9.7-24.5c-1.6-4.2-3.9-8.1-6.8-11.7c-3.2-5.2-8.2-9.5-13.6-11.4c-1-0.3-2.2-0.6-3.7-0.9c-1.6-0.6-3.3-1-4.9-1.4c-14.7-2.9-30,6.8-33.6,21.2c-1.9,7.7,2.2,29.3,12.4,31.3c-0.2,2.6-0.4,5.1-0.4,7.6c-9.1-3.8-15.3-8.9-20.9-17.9c-1.8-2.9-3.7-5.9-7.1-7.2c-6.5-2.4-14.5-1.9-21.3-2.2c-13.6-0.6-27.7-1.3-41.1,0.5c-1.9,0.3-2.6,1.6-2.3,2.8c-3.6,1.9-3.2,7.8-3.5,11.3c-1.1,14-1,29.9,0.1,43.8c0.9,10.9,6.3,18.3,17,21.1c10,2.6,21.4,0.9,31.5,0.9c14.2,0,28.5,1,42.6,2.1c21.2,1.7,42.1,3.7,63.4,3.7c15.3,0,38.6,1.3,52.2-7.2c9.8-6.1,12.5-22.8,13.9-33.1C237.3,178.7,238.7,164.3,233.6,153.3z M31.4,150.6c3.8,0.2,7.7,0.2,11.5,0.3C39.1,151.1,35.2,151.1,31.4,150.6z M76.8,151.6c2,0.5,3.7,1.1,5,2.1c0.6,0.5,1.2,1.1,1.8,1.7C81.5,153.8,79.3,152.5,76.8,151.6z M137,187.2c-4.1,2.8-11.1,0.9-14.4-2c-3.6-3.1-3.6-9.3-3.7-13.6c-0.2-8.1,0.7-16.4-0.7-24.4c7.7-0.7,15.2-2,22.9-1.3C142.2,158.4,147.2,180.2,137,187.2z"/></g></g><g></g><g></g><g></g><g></g><g></g><g></g><g></g><g></g><g></g><g></g><g></g><g></g><g></g><g></g><g></g></g></g>
</svg>