<?xml version="1.0" encoding="utf-8"?>
<!-- Svg Vector Icons : http://www.onlinewebfonts.com/icon -->
<!DOCTYPE svg PUBLIC "-//W3C//DTD SVG 1.1//EN" "http://www.w3.org/Graphics/SVG/1.1/DTD/svg11.dtd">
<svg version="1.1" xmlns="http://www.w3.org/2000/svg" xmlns:xlink="http://www.w3.org/1999/xlink" x="0px" y="0px" viewBox="0 0 256 256" enable-background="new 0 0 256 256" xml:space="preserve">
<metadata> Svg Vector Icons : http://www.onlinewebfonts.com/icon </metadata>
<g><g><g id="git_1_"><g><path fill="#000000" d="M153.4,148c7.2-0.2,11.4-3.5,17.2-5.1c4.7-2.9,12.4-2.8,17.2-5.7c6.3-1.4,10-5.2,14.6-8.3c4.3-3.3,8.4-6.9,12.7-10.2c3.1-5.4,7.1-9.9,8.3-17.2V85.1c-1.1-7.4-3.3-13.7-5.1-20.4c-1.3-0.8-2.1-2.1-2.6-3.8c-2.2-1.6-4.1-3.5-5.7-5.7c-2.9-1.1-5.5-2.6-7-5.1c1.4-0.5,0.2-3.6,0.7-5.1c1.4-0.5,0.2-3.6,0.6-5.1c1.8-0.1-0.6-4.4,1.3-4.5c-0.5-2.6,1-3.3,0.7-5.7c1.2-5.7,5.1-14,1.3-19.1c-0.8-0.9-2.8-0.6-4.5-0.6c-0.7,0.3-1.4,0.7-1.9,1.3c-2.6,1-3.9,3.3-6.4,4.5c-1.7,1.9-4.5,2.7-5.7,5.1c-4.4,3.1-7.5,7.3-12.1,10.2c-2.9-0.2-4,1.6-6.4,1.9c-2.7,0-4.7,0.8-7,1.3c-4.8,0.7-9.6,1.4-14.6,1.9c-2.2,0.3-3.6-0.2-5.1-0.6c-2-0.3-1.4,2-3.8,1.3c-6.3-0.8-15.4,0.5-23.5,0c-2.5-0.6-5.4-0.9-8.3-1.3c-3.3-2-6.2-4.4-8.3-7.6c-5.3-1.7-9-5-14.6-6.4c-3.3-1-3.5-5-8.3-4.5c-5.4,0.3-6,5.5-7.6,9.5c0.1,9.8-1.1,17.5,0,26.7c-0.2,2.1-1.9,2.7-3.2,3.8c-1.1,1.2-1.7,2.9-3.2,3.8c-1.9,2.8-3.2,6.1-5.1,8.9c-0.3,3.9-1.6,6.9-1.9,10.8v15.9c1.3,2.1,0.7,4.7,1.3,7c0.1,0.3,1.2,1.5,1.3,1.9c0.3,0.9,0.4,1.9,0.7,2.5c0.6,1.9,1.2,3.1,1.3,4.5c0,0.6,0.6,0.4,0.7,0.6c1.2,3.5,1.8,7.1,3.2,10.2c0.6,1.2,1.7,2.5,2.6,3.8c1.1,1.7,1.4,2.2,2.6,3.2c0.2,0.2-0.2,1.1,0,1.3c2.2,2.7,5.4,4.1,7,7c5.3,2.5,10,5.7,17.8,5.7c0.5,1.4,3.6,0.2,5.1,0.6c0.9,1,3.3,0.6,5.1,0.7c3.1,0.9,6.7,1.4,10.8,1.3c-1.4,1.7-2.8,3.5-4.5,5.1c-1.2,2.2-4,2.8-4.5,5.7c-2,1.8-1.1,6.5-3.2,8.3c-7.1,0.3-13.4-0.2-17.8-2.6c-6.1-6.8-8.9-17-17.2-21.6c-6.4-1.2-12.8,0.5-19.7,0.6c-2.7,2.2-6.2,3.5-8.9,5.7c-3.2,1.6-7,2.8-7,7.6c6.5,4.9,11.9-4,19.1-4.5c4.2-0.1,6.9,1.1,11.4,0.6c2.7,3.4,4.7,7.6,6.4,12.1c2.2,2.7,4.6,5.2,6.4,8.3c1.6-0.1,2,1,2.5,1.9c4.5,2.3,9.5,4,15.9,4.5h9.5c3.3,3.6,3.9,9,3.2,14.6c-0.1,1-0.9,2.1-1.3,3.2c-0.7,2-0.9,3.6-1.3,5.1c-0.6,2.3-2.7,4.2-2.6,6.4c-4.1,3.1-7.4,7-14.6,7c-4.4-0.1-4.3-4.6-9.5-3.8c-0.6-2.4-0.9-5-4.5-4.5c-2.7,1.1-3.1,6.5-1.9,9.5c1,3.2,2.6,5.9,3.8,8.9c4.9,4,14.7,3.2,23.5,3.2c1.3-1.2,3-2,5.1-2.6c4.5-5.5,8.4-11.5,12.7-17.2c0.5-2.9,2.1-4.7,2.5-7.6c0.7-2.1,3.3-4.8,5.1-3.8c1.3,9.3,0.4,20.8,0.6,31.2c-1.4,2.2-2,5.3-3.2,7.6c-3.6-0.2-5.9,0.9-7.6,2.6c0.6,3.6,2.7,5.8,5.1,7.6c6.7,0.7,10.3-1.6,14-3.8c1.8-4,3.4-8,4.5-12.7c0.2-8-0.1-17.7,0-27.3c0.8-3.6,1.9-7,1.9-11.5c1.3-3.1,0.1-8.8,1.9-11.4c0.1,4.1,1,7.5,0.7,12.1c2.2,14.5,10.1,23.4,14.6,35.6c4.5,4.2,8.9,8.5,17.2,8.9c0.6-0.9,2-0.9,3.2-1.3c1.5-2.1,3.1-4.1,2.6-8.3c-0.5-0.1-0.7-0.5-0.6-1.3c-1.8-3.8-7.2-3.8-10.2-6.4c-1.8-5.7-5.2-9.6-7.6-14.6c-1.5-4.8-2.8-9.9-5.1-14c0.2-3.4-1.6-4.7-1.3-8.3c-1.3-0.2-0.2-2.8-1.3-3.2c-0.5-2.2,2.6-0.8,1.9-3.2c2.7,2.6,3.7,6.9,5.1,10.8c4.1,6.3,8,12.8,14,17.2c5,5.6,11.6,9.7,20.4,11.4h8.3c0.1-1.2,2.2-0.4,2.6-1.3c0.4-0.8,1.4-1.2,2.6-1.3c2.3-2.4,3.9-5.5,5.7-8.3c1.3-3,2.4-9.6-0.6-11.4c-8-0.1-8.7,7-15.3,8.3c-11.9-2.7-19.8-12.3-24.8-21c-0.4-0.6-0.2-1.2-0.7-1.9c-3.5-6.4-7.7-12.8-10.2-19.7c-1.9-1.5-3-3.8-4.5-5.7c-1.1-0.6-2-1.4-2.5-2.6C154.1,150.2,152.1,148.2,153.4,148z M191,52c0,0,0.6-1.2,0.6-1.3c0,0,0-0.6,0-0.6C193.9,49.7,191.7,52.9,191,52z M187.1,67.9c-1.3-0.2-1.3-1.7-2.6-1.9c0.9-3.3,2.9-5.6,3.8-8.9c1.1-0.1,1.3,0.8,2.6,0.6C192,63.4,188,64.1,187.1,67.9z M191.6,74.2c0-2.8,1.6-3.9,2.6-5.7c1.1,0.6,1.2,2.2,1.9,3.2c0.2,2.3-1.9,2.3-1.9,4.5C192.8,76,192.9,74.4,191.6,74.2z M210.7,99.1c1.3,0.2-0.1,2.8-0.6,3.2c0.3,2-0.9,2.5-1.3,3.8c-1.9,1.5-1.8,5-5.1,5.1c-3,0,0.7-1.4,0.6-2.6c0.6-1.1,1.5-1.9,1.9-3.2C208.2,103.8,209.3,101.3,210.7,99.1z M205.6,93.3c0-1.9,1.3-2.5,1.9-3.8C210.6,90.3,207,95.1,205.6,93.3z M206.2,67.9c1.6,2.3,4.6,7.4,1.9,10.2c-2.6-0.7-2.6-3.8-4.5-5.1C204,70.7,205.3,69.5,206.2,67.9z M204.3,97.8c-2.2,2.2-4.1,4.8-5.7,7.6c-2-1.7,0.5-4.1,1.3-5.1c1.3-1.3,2.1-3,3.2-4.5C203.8,96.1,204.4,96.7,204.3,97.8z M202.4,63.4c0,1.3-1.7,0.8-1.3,2.6c-2.4-0.3-2.8-2.7-3.2-5.1C200.6,60.6,201.3,62.2,202.4,63.4z M199.9,78.7c2.1,1.5,4.4,5,1.9,7.6c-2-0.5-1.8-3.3-3.8-3.8C198.6,81.2,199.3,80,199.9,78.7z M196,93.3c-2.3-1.3,0-3.3-0.7-6.4c1.4,0.5,1.6,2.2,2.6,3.2C198.3,92.1,196.2,91.8,196,93.3z M197.3,24c1.8,2.1-1.2,4.7-0.6,7.6c-2.7,0.2-2.8-2.3-4.5-3.2C193.7,26.7,196.2,26.1,197.3,24z M187.8,31h1.9c0,4.3,6.4,4.6,4.5,8.9c-3.3-1.2-4.7-4.2-7-6.4C186.9,32.2,187.6,31.9,187.8,31z M184,39.3c1-0.2,1.1,0.6,1.9,0.6c0.2,3,3.6,2.7,3.8,5.7c-0.9,0.6-1.3,1.7-1.9,2.6c-3.2-0.4-3.2-4-5.7-5.1C182.3,41.4,184,41.2,184,39.3z M184,73c-2.2,0.4-2.3-2.2-1.3-3.2C184,70.2,185.3,71.7,184,73z M178.2,38c0.3-1,0.7,0,0.6,0.6C177.7,38.8,177.6,38,178.2,38z M178.9,48.8c1-0.2,1.1,0.6,1.9,0.6c0,2.7,3.2,2.3,3.2,5.1c-2,2.7-3.2,6.1-5.1,8.9c-2.8-0.3-4.4-2-6.4-3.2C174.7,56.5,176.6,52.5,178.9,48.8z M175.7,70.4h-8.3c0-1.9,1.7-2.2,1.9-3.8c1.6,0.1,2.2,1.2,3.2,1.9C174.1,68.6,175.8,68.6,175.7,70.4z M170.6,43.1c-0.2-1,0.6-1.1,0.6-1.9c2.5-0.6,2.3,1.6,3.8,1.9c-0.9,2.7-3.3,3.9-3.8,7c-2.5,1.2-1.9,5.3-5.1,5.7c-2.5-1.9-0.3-4.9,1.3-6.4C168.1,47,169.2,44.8,170.6,43.1z M165.5,41.8c-1.8,2.7-3.5,5.4-5.1,8.3C155.5,48.1,158.7,39.7,165.5,41.8z M161.1,60.2c1.3,0,0.8,1.7,2.6,1.3c-0.2,3.8-2.7,5.3-1.9,10.2c-0.6-0.5-1.4-0.7-2.6-0.6c1.3-2.4-0.1-3.6-1.3-5.1C158.5,63.7,160,62.1,161.1,60.2z M156.6,55.8c-0.7,3.3-3.3,4.8-3.8,8.3c-1.3-0.6-2.5-1.3-3.8-1.9c1.2-3.3,3.6-5.3,4.5-8.9C155.3,53.3,155.8,54.7,156.6,55.8z M154.1,42.4c0.3,0.3-0.5,0.8-0.7,0.6C153.1,42.7,153.9,42.3,154.1,42.4z M143.3,52.6c1.4-1.2,1.7-3.4,3.2-4.5c-0.2-1,0.6-1.1,0.7-1.9c1.3,0.2,1.2,1.7,2.5,1.9c-0.4,2.3-2.4,3.1-3.2,5.1c-1.4,1.3-1.5,4-3.8,4.5C140.5,56.1,142.5,54.6,143.3,52.6z M148.3,69.8c-0.3,1.4-3.1,0.3-4.5,0.6c0.2-0.8,1.1-1,1.3-1.9C147.1,68,146.4,70.3,148.3,69.8z M125.4,42.4h17.2c-0.8,4.3-4.4,5.7-5.7,9.5c-1.9,0-2.2-1.7-3.8-1.9c0.5-2.7,3-3.4,2.6-7c-3.2-0.3-3.7,2.2-5.7,3.2c-1.6,0.1-2-1-2.5-1.9C126.7,43.7,125,44.1,125.4,42.4z M139.4,70.4c-1.1,1.5-4.8,0.2-7,0.7c1.5-2.7,3.4-5.1,4.5-8.3c0.9,0.3,1.6,0.9,2.6,1.3C138,65.6,137.7,69,139.4,70.4z M129.3,64.1c-1.9,0-2.4-1.4-3.2-2.6c0.5-2.5,2.5-3.4,3.2-5.7c1.5,0.4,1.7,2.1,3.2,2.5C131.4,60.3,130.6,62.4,129.3,64.1z M126.1,71.1c-1.7,0.4-5-0.8-5.7,0.6c-1.9-1.3,1.6-2.6,1.3-4.5C123.2,68.4,126,68.4,126.1,71.1z M120.4,48.2c2,0.5,2.8,2.3,4.4,3.2c-0.5,2.9-3.3,3.5-3.8,6.4c-2.1-0.2-2.8-1.9-4.5-2.6C116.9,51.9,119.9,51.3,120.4,48.2z M105.1,42.4v0.6c5.2-1.5,7.1,2.5,12.1,0.6c0.1,2.2-2.1,2.1-2.6,3.8c-1.7,0.4-1.3,2.9-3.2,3.2c-3.1-1-4.9-3.2-7-5.1c-0.1-1.2,0.7-1.4,0.6-2.5c-1.5-0.3-1.4,1.2-3.2,0.6C101.3,41.6,103.9,42.7,105.1,42.4z M115.9,62.8C115,67,111,68.1,110.8,73c-1.9-0.5-3.7-1-4.5-2.6c1-3.9,3.9-5.9,5.1-9.5C113.9,60.5,114.1,62.5,115.9,62.8z M100.6,51.3c0.3,0.3-0.5,0.8-0.7,0.7C99.7,51.6,100.5,51.2,100.6,51.3z M101.9,52.6c1.4,1.4,3.5,2,4.5,3.8c-1.8,4-4.9,6.5-6.4,10.8c-2.6-1-4.8-2.4-7-3.8C94.5,58.4,100,57.3,101.9,52.6z M95.5,78.7c-2.1,0.4-3.1,2-5.1,2.6c-2.5-0.5-3.5-2.5-5.7-3.2c0.8-3.6,3.2-5.7,4.5-8.9c3.7,0.1,4.7,2.9,7.6,3.8C96.1,74.6,95.3,76.1,95.5,78.7z M81.5,69.8c-1.2,1.1-1.9,4.7-3.8,3.2c1-3.8,3.3-6.4,5.1-9.5c0.8,0.2,1,1.1,1.9,1.3C84.3,67,82.3,67.8,81.5,69.8z M86.6,58.3c0.3,0.3-0.5,0.8-0.7,0.6C85.7,58.6,86.5,58.2,86.6,58.3z M99.4,39.9c-1.7,1.9-3.5-1.5-5.1-1.9C95.8,36.3,97.6,39.7,99.4,39.9z M94.3,45.6c-1.9,3.9-5.4,6.1-7,10.2c-1.3-0.2-1.3-1.7-2.5-1.9c1.4-4.5,4.1-7.8,6.4-11.4C92.8,42.9,92.4,45.3,94.3,45.6z M80.3,39.3v-9.6c3,1.7,6.6,2.7,9.5,4.5c-1.3,0.6-1.8,2-2.6,3.2c0.3,2.2-2.3,1.6-1.9,3.8c-2.1,1.7-3.3,4.3-4.5,7C79.4,46.5,80.7,42,80.3,39.3z M78.4,53.9c0.3-1,0.7,0,0.6,0.7C77.9,54.7,77.7,53.9,78.4,53.9z M77.1,58.3c2.9,1.2-1.5,2.8-1.3,5.1c-1.9,0.9-1.4,4.1-3.8,4.5C72.4,63.4,75.4,61.5,77.1,58.3z M69.5,91.4c1.6-4.5,3.3-8.9,5.1-13.3h1.9c-1.2,3.7-3.8,8.6-1.9,13.3c-1.6,1.6-3.3,3.1-3.8,5.7C69.1,96.4,69.5,93.7,69.5,91.4z M83.4,86.3c-1.8,0.1-1.4,2.4-2.5,3.2c-0.3,1.5,1.2,1.4,0.6,3.2c-5.4,5.9-7.1,22.1-2.6,30.5c0.8-0.1,0.4,0.9,0,0c-3.8-3.2-5.4-8.6-7-14c0.9-6,3.9-10.1,5.1-15.9c1.5-0.4,1.7-2.1,3.2-2.6c-0.5-2.4,1.1-2.7,0.7-5.1c0.7-0.4,0.9-4.5,2.5-1.9C86.3,83.7,83.6,85.6,83.4,86.3z M115.9,134.7c-6.4-0.8-12.8-1.6-19.1-2.6c-2.4-2.1-4.7-4.2-6.4-7c-1-1.3-1.8-2.8-2.6-4.4c-1.1-1-0.8-3.4-1.9-4.5c0-6.2,0.6-11.7,1.3-17.2c0.9-3.7,4-5.3,5.7-8.3c2.7-2,4.6-4.7,7.6-6.4c1.4-0.5,3.3-0.6,4.5-1.3c1.1-0.8,3.7-0.1,4.5-1.3c15.5,0.9,26.5-2.8,42-1.9c3.3,0.5,4.2-1.3,7-1.3h14c1,0.2,1.1-0.6,1.9-0.6c2-0.5,1.9,1.1,3.8,0.6c1.6,0.1,2.5,0.9,2.5,2.6c0.8,0.7,2.3,0.6,3.2,1.3c1.9,5.7,4.2,11,5.7,17.2v10.2c-2,6.9-4.9,12.9-8.3,18.5c-2.3,1.8-5.9,2.1-8.3,3.8c-1.4,0.5-2.5,1.3-4.5,1.3c-0.2,1.7-3.2,0.6-3.8,1.9C147.8,136.7,132.9,134.9,115.9,134.7z M168.1,115c5.1,0.4,5.8-3.5,7.6-6.4c-0.1-8,1.3-17.4-6.4-17.8h-1.3c-2.7,2.6-5.7,5-7,8.9c-0.1,3.5-0.1,6.8,0.6,9.5C164.1,110.9,164.1,114.9,168.1,115z M103.2,116.9c2.8,1.8,6.4,2.2,9.5,0.7c4.6-4.7,2.5-17.1-0.7-21.6C101.4,92.7,99.2,109.1,103.2,116.9z M139.4,117.5c0.1-0.7,1-0.7,1.9-0.7c1.3-1.5,1.7-4.3,0.7-6.4c-2.4-2.3-6.9-1-7,2.6C135.3,115.6,136.8,117.1,139.4,117.5z M142,124.5c-2.1,0-3.2,1.1-5.7,0.6c-4.2-0.3-4.4-4.5-8.9-4.4c-0.4,0.9-1,1.5-1.9,1.9c1,6.6,6.9,8.4,14,8.9c1.5-0.2,2.4-1,4.5-0.7c3.1-2,10.4-5.1,6.4-10.2C145.8,120.3,144.8,123.3,142,124.5z"/></g></g><g></g><g></g><g></g><g></g><g></g><g></g><g></g><g></g><g></g><g></g><g></g><g></g><g></g><g></g><g></g></g></g>
</svg>