<?xml version="1.0" encoding="utf-8"?>
<!-- Svg Vector Icons : http://www.onlinewebfonts.com/icon -->
<!DOCTYPE svg PUBLIC "-//W3C//DTD SVG 1.1//EN" "http://www.w3.org/Graphics/SVG/1.1/DTD/svg11.dtd">
<svg version="1.1" xmlns="http://www.w3.org/2000/svg" xmlns:xlink="http://www.w3.org/1999/xlink" x="0px" y="0px" viewBox="0 0 256 256" enable-background="new 0 0 256 256" xml:space="preserve">
<metadata> Svg Vector Icons : http://www.onlinewebfonts.com/icon </metadata>
<g><g><g><path fill="#000000" d="M243,132.9c-1.8-23.4,1.9-46.9-0.4-70.2c-3.1-32-34.6-42.1-61.6-47.1c-37.7-7-77.6-8.8-115.6-3.4C49.1,14.5,12,26.5,23,48.9C18.5,92,8.8,134.4,10.1,178.1c1,33.6,12.5,48.4,43.9,57c39.7,11,83.6,13.1,124.5,11.2c32.7-1.5,58.2-5.8,65.2-41.5C248.4,181.5,244.8,156.4,243,132.9z M55.8,176.1c0.2-0.6,0.5-1.2,0.6-1.9c0.4-3.9,0.6-7.8,1-11.8c0.2,0,0.5,0,0.7,0c0.1,6.2,0.6,12.4,1.3,18.6C58.2,179.5,57,177.8,55.8,176.1z M103.8,185.2c-9.5-0.9-19.1-1-27.4,0.9c-0.6-3.2-1.1-6.5-1.6-9.9c0.7-21.6,2.1-43.2,2.5-64.8c0.5-1.7,1-3.4,1.6-5c7.1,0.3,14.7,1,22.3,1.3c2.1,12.7,2.9,25.4,3.2,38.1C103.7,158.9,103.7,172.1,103.8,185.2z M97.1,87.9c-0.6,0.6-1.1,1.3-1.4,1.9c-0.7-1.1-1.8-1.9-3.4-1.8c-10.4,0.6-20.3-5-20.9-16.2c-0.6-9.9,7.3-19.5,17.3-20.1c7.4-0.5,13.7,4.3,17,10.6C110.5,71.7,103.7,81.7,97.1,87.9z M193.6,172.6c0,0.1,0.1,0.2,0.1,0.3c0.1,5.7,0.4,11.4,1.2,17c-8.7-1.3-17.8-1.6-27.1-1.4c2.2-18.5,0.9-38.3-5.8-55.3c-1.8-4.6-8.6-6.7-11.3-1.5c-9.2,17.7-7.3,37.8-4.8,57c-4.7,0-9.3-0.1-13.7-0.4c-4.4-0.3-9.4-0.9-14.7-1.6c0.5-21.9,1.1-43.9-1-65.7c0.3-4.4,0.7-8.7,1.2-13.1c8.7-0.4,17.1-1.6,24.3-4.8c-0.3,4.5-0.7,9-0.9,13.4c-0.3,5.7,8.5,8.3,11,3c4.1-8.7,11.1-23.4,23-17.9c9.2,4.3,15,15.3,19.4,23.9c0.4,0.8,0.8,1.5,1.1,2.3c-0.7,7.5-1,15-1.3,22C193,157.7,191.5,166.1,193.6,172.6z M220.2,224.2c-3.7,2.5-8,4.4-12.7,5.7c1.2-0.5,2.3-1,3.4-1.5c1.1-0.5,1.8-1.3,2.3-2.3c0.7,0,1.4,0,2.2-0.2c1.8-0.5,3.4-1.1,4.9-1.8C220.3,224.1,220.3,224.1,220.2,224.2z"/></g><g></g><g></g><g></g><g></g><g></g><g></g><g></g><g></g><g></g><g></g><g></g><g></g><g></g><g></g><g></g></g></g>
</svg>